:version 1.10
:name ASF
:units
  mass 1
  length 1
  angle deg
:documentation
  ASF file generated by Kaydara
:root
  axis xyz
  order  tx ty tz rx ry rz
  position 0 0 0
  orientation 0 0 0
:bonedata
  begin
    id 1
    name RightUpLegDummy
    direction -0.718183 -0.695806 0.00816078
    length 4.904
    axis 0 0 0 xyz
  end
  begin
    id 2
    name RightUpLeg
    direction -0.0736652 -0.994202 0.0783343
    length 17.4976
    axis -2.72909 -3.00389 -4.00133 xyz
    dof rx ry rz
  end
  begin
    id 3
    name RightLeg
    direction -0.0389037 -0.994596 -0.0962598
    length 16.5821
    axis 3.95836 -18.5909 -4.46993 xyz
    dof rx ry rz
  end
  begin
    id 4
    name RightFoot
    direction -0.311643 -0.412678 0.855906
    length 3.77069
    axis -1.99483 -18.8351 -3.27644 xyz
    dof rx ry rz
  end
  begin
    id 5
    name RightToes
    direction -0.317852 0.0389852 0.947339
    length 3.85082
    axis -2.00228 -18.1713 -3.25211 xyz
    dof rx ry rz
  end
  begin
    id 6
    name SpineDummy
    direction 8.3039e-015 1 4.44677e-016
    length 4.6813
    axis 0 0 0 xyz
  end
  begin
    id 7
    name Spine
    direction -0.000262373 0.999988 0.00493267
    length 10.1015
    axis -0.00246081 0.00062579 0.0150362 xyz
    dof rx ry rz
  end
  begin
    id 8
    name Spine1
    direction 0 0 0
    length 0
    axis -0.00349562 0.000650293 0.0196666 xyz
    dof rx ry rz
  end
  begin
    id 9
    name HEadDummy
    direction -0.000343232 0.999999 0.00123745
    length 3.43865
    axis -0.00349562 0.000650293 0.0196666 xyz
  end
  begin
    id 10
    name HEad
    direction -0.0461221 0.980933 0.188796
    length 5.12695
    axis -0.00351404 -7.04812 0.0199272 xyz
    dof rx ry rz
  end
  begin
    id 11
    name LeftShoulder1Dummy
    direction 0.998904 -0.0399089 -0.0244534
    length 3.5433
    axis -0.00349562 0.000650293 0.0196666 xyz
  end
  begin
    id 12
    name LeftShoulder1
    direction 0.99951 1.64443e-005 0.0312999
    length 4.05031
    axis -0.00349562 0.000650293 0.0196666 xyz
    dof rx ry rz
  end
  begin
    id 13
    name LeftArm
    direction 0.984791 0.0515299 0.165927
    length 12.9126
    axis -64.823 -10.7743 5.20463 xyz
    dof rx ry rz
  end
  begin
    id 14
    name LeftForeArm
    direction 0.984968 0.0534808 0.16425
    length 10.8596
    axis -30.0462 -7.70601 1.87451 xyz
    dof rx ry rz
  end
  begin
    id 15
    name LeftHand
    direction 0.975871 0.0289682 0.216418
    length 6.62295
    axis -20.1348 -6.98077 1.86072 xyz
    dof rx ry rz
  end
  begin
    id 16
    name RightShoulderDummy
    direction -0.998877 -0.0405946 -0.0244307
    length 3.5433
    axis -0.00349562 0.000650293 0.0196666 xyz
  end
  begin
    id 17
    name RightShoulder
    direction -0.998933 -0.0249743 -0.0388558
    length 4.05031
    axis -0.0205316 -4.02113 1.41395 xyz
    dof rx ry rz
  end
  begin
    id 18
    name RightArm
    direction -0.997559 0.068664 0.0127103
    length 12.9638
    axis -67.3882 1.84188 -6.15987 xyz
    dof rx ry rz
  end
  begin
    id 19
    name RightForeArm
    direction -0.991508 0.0912848 0.0926241
    length 10.8312
    axis -22.1975 3.41087 -4.28711 xyz
    dof rx ry rz
  end
  begin
    id 20
    name RightHand
    direction -0.989262 0.0600788 0.133232
    length 6.57864
    axis -12.2911 2.17515 -4.39675 xyz
    dof rx ry rz
  end
  begin
    id 21
    name LeftUpLegDummy
    direction 0.718183 -0.695806 0.00816078
    length 4.904
    axis 0 0 0 xyz
  end
  begin
    id 22
    name LeftUpLeg
    direction 0.0831398 -0.99469 0.0606531
    length 17.4976
    axis -1.71016 2.29552 4.63832 xyz
    dof rx ry rz
  end
  begin
    id 23
    name LeftLeg
    direction 0.0498442 -0.991778 -0.117862
    length 16.5821
    axis 5.13757 15.5727 5.13348 xyz
    dof rx ry rz
  end
  begin
    id 24
    name LeftFoot
    direction 0.269026 -0.433896 0.85986
    length 3.77069
    axis -0.576502 15.6961 4.10267 xyz
    dof rx ry rz
  end
  begin
    id 25
    name LeftToes
    direction 0.277311 0.0251143 0.960452
    length 3.85048
    axis -0.576502 15.6961 4.10267 xyz
    dof rx ry rz
  end
:hierarchy
  begin
    root RightUpLegDummy SpineDummy LeftUpLegDummy
    RightUpLegDummy RightUpLeg
    RightUpLeg RightLeg
    RightLeg RightFoot
    RightFoot RightToes
    SpineDummy Spine
    Spine Spine1
    Spine1 HEadDummy LeftShoulder1Dummy RightShoulderDummy
    HEadDummy HEad
    LeftShoulder1Dummy LeftShoulder1
    LeftShoulder1 LeftArm
    LeftArm LeftForeArm
    LeftForeArm LeftHand
    RightShoulderDummy RightShoulder
    RightShoulder RightArm
    RightArm RightForeArm
    RightForeArm RightHand
    LeftUpLegDummy LeftUpLeg
    LeftUpLeg LeftLeg
    LeftLeg LeftFoot
    LeftFoot LeftToes
  end

:SAMPLES-PER-SECOND 30
:FULLY-SPECIFIED
:DEGREES
175
root  -1.37851 5.98685 15.3364 -48.8205 -4.86036 2.00885
RightUpLeg  -86.7717 -7.34527 3.21453
RightLeg  91.8015 16.8281 -11.1297
RightFoot  29.8927 3.1225 -8.20616
RightToes  5.82077e-011 -3.18055e-015 -2.98177e-016
Spine  34.3523 1.55673 6.94731
Spine1  19.1948 0.848771 2.45827
HEad  -8.87132 15.9768 9.59123
LeftShoulder1  -3.88251e-019 9.70628e-020 -3.87848e-018
LeftArm  -17.4328 64.3833 -55.7694
LeftForeArm  2.45212 -2.6991 -1.90321
LeftHand  -6.93051 -7.96061 57.2209
RightShoulder  5.17448 9.5514 24.9228
RightArm  9.58127 -66.9022 4.14349
RightForeArm  -11.0064 13.149 -7.6858
RightHand  -7.90996 6.66413 -66.9734
LeftUpLeg  -85.91 5.49341 3.92102
LeftLeg  91.87 -14.5539 12.1079
LeftFoot  31.9151 -1.03336 2.71764
LeftToes  5.91571e-011 -3.44359e-011 -3.93244e-011
176
root  -1.38406 5.98328 15.3003 -48.8785 -4.91788 1.84702
RightUpLeg  -86.587 -7.40288 3.38409
RightLeg  91.6544 16.8028 -11.1372
RightFoot  29.9861 3.16847 -8.3032
RightToes  5.82077e-011 -3.18055e-015 -2.98177e-016
Spine  34.2753 1.74749 6.93816
Spine1  19.1611 0.994996 2.52666
HEad  -8.65303 12.9365 8.7895
LeftShoulder1  -3.88251e-019 9.70628e-020 -3.87848e-018
LeftArm  -21.7398 61.526 -57.8697
LeftForeArm  3.54822 0.123294 -0.511993
LeftHand  -7.0229 -7.45398 59.8328
RightShoulder  5.01917 9.41063 24.3001
RightArm  7.18487 -67.2112 6.46242
RightForeArm  -10.2885 11.9268 -7.78229
RightHand  -8.12596 7.04866 -66.7485
LeftUpLeg  -85.8326 5.61649 3.99737
LeftLeg  91.7063 -14.5361 12.2407
LeftFoot  31.9298 -1.01246 2.66631
LeftToes  5.91571e-011 -3.44359e-011 -3.93244e-011
177
root  -1.37253 5.91774 15.3081 -49.4498 -3.76764 2.30859
RightUpLeg  -86.4747 -8.05829 2.0813
RightLeg  92.0917 16.8438 -10.8277
RightFoot  29.9904 3.2094 -8.40521
RightToes  5.82077e-011 -3.18055e-015 -2.98177e-016
Spine  34.3924 1.80574 5.89236
Spine1  19.3344 0.691503 2.64972
HEad  -8.60142 10.2361 6.80377
LeftShoulder1  -3.88251e-019 9.70628e-020 -3.87848e-018
LeftArm  -21.7401 60.1558 -57.2664
LeftForeArm  4.81867 -0.0422912 -0.0761622
LeftHand  -6.96166 -7.44409 59.4517
RightShoulder  4.89017 9.35963 23.6504
RightArm  6.35535 -67.5522 7.51229
RightForeArm  -10.0186 11.174 -7.67932
RightHand  -8.22355 7.20566 -66.7221
LeftUpLeg  -85.2929 5.0362 2.72367
LeftLeg  91.4919 -14.5357 12.6295
LeftFoot  32.0654 -1.02838 2.69671
LeftToes  5.91571e-011 -3.44359e-011 -3.93244e-011
178
root  -1.35116 5.81897 15.352 -50.2638 -2.02478 3.21054
RightUpLeg  -86.4479 -8.89903 -0.0862883
RightLeg  92.9066 16.9129 -10.2636
RightFoot  30.0545 3.2216 -8.42288
RightToes  5.82077e-011 -3.18055e-015 -2.98177e-016
Spine  34.3784 1.78289 4.09867
Spine1  20.2062 0.187924 2.43181
HEad  -9.26826 8.20597 4.93466
LeftShoulder1  -3.88251e-019 9.70628e-020 -3.87848e-018
LeftArm  -20.9862 60.3912 -56.6905
LeftForeArm  4.85616 -0.104003 -0.391437
LeftHand  -7.55726 -8.42013 59.7155
RightShoulder  4.91888 9.41318 23.7158
RightArm  6.15416 -67.1657 8.09153
RightForeArm  -10.2847 10.7854 -7.36504
RightHand  -8.00553 6.86469 -66.7409
LeftUpLeg  -84.5122 4.23199 0.677927
LeftLeg  91.3336 -14.5508 13.0693
LeftFoot  32.1495 -1.05541 2.75666
LeftToes  5.91571e-011 -3.44359e-011 -3.93244e-011
179
root  -1.33497 5.768 15.3809 -50.6518 -1.14316 3.72794
RightUpLeg  -86.475 -9.30986 -1.26204
RightLeg  93.3507 16.9376 -9.9056
RightFoot  30.0786 3.16907 -8.28613
RightToes  5.82077e-011 -3.18055e-015 -2.98177e-016
Spine  34.0769 1.78456 2.86291
Spine1  21.2457 -0.121132 2.19529
HEad  -10.7078 6.79772 3.78409
LeftShoulder1  -3.88251e-019 9.70628e-020 -3.87848e-018
LeftArm  -22.0269 61.1085 -57.1862
LeftForeArm  4.02716 -0.0276527 -0.0290988
LeftHand  -8.76201 -9.79632 62.2563
RightShoulder  4.96043 9.42245 23.9388
RightArm  5.10187 -66.5133 9.47701
RightForeArm  -10.4585 10.4511 -7.24204
RightHand  -7.7661 6.53415 -66.571
LeftUpLeg  -84.1246 3.93682 -0.448305
LeftLeg  91.2971 -14.5627 13.2491
LeftFoot  32.0882 -1.05594 2.76157
LeftToes  5.91571e-011 -3.44359e-011 -3.93244e-011
180
root  -1.32603 5.76607 15.3885 -50.6277 -1.16248 3.71458
RightUpLeg  -86.5323 -9.37974 -1.20679
RightLeg  93.3504 16.9373 -9.90637
RightFoot  29.9841 3.17418 -8.31801
RightToes  5.82077e-011 -3.18055e-015 -2.98177e-016
Spine  33.6953 1.81005 2.44368
Spine1  21.8301 -0.260305 2.26302
HEad  -12.336 5.99083 2.96266
LeftShoulder1  -3.88251e-019 9.70628e-020 -3.87848e-018
LeftArm  -23.3232 61.6705 -57.8065
LeftForeArm  3.15537 0.0782948 0.484895
LeftHand  -9.45217 -10.4623 63.897
RightShoulder  4.89888 9.35295 23.7129
RightArm  3.5774 -66.2835 11.2199
RightForeArm  -10.1942 10.1074 -7.36986
RightHand  -7.76637 6.58967 -66.3301
LeftUpLeg  -84.1713 4.0497 -0.497772
LeftLeg  91.3539 -14.5703 13.2054
LeftFoot  31.9851 -1.03746 2.72334
LeftToes  5.91571e-011 -3.44359e-011 -3.93244e-011
181
root  -1.31556 5.76629 15.4064 -50.5327 -1.16306 3.69247
RightUpLeg  -86.6786 -9.50293 -1.0921
RightLeg  93.3918 16.9407 -9.88352
RightFoot  29.966 3.27121 -8.5656
RightToes  5.82077e-011 -3.18055e-015 -2.98177e-016
Spine  33.3987 1.79533 2.13026
Spine1  21.9576 -0.416576 2.34432
HEad  -13.5595 5.78037 2.09662
LeftShoulder1  -3.88251e-019 9.70628e-020 -3.87848e-018
LeftArm  -22.5789 62.3747 -57.3589
LeftForeArm  2.26055 0.0192266 0.0849435
LeftHand  -9.16067 -10.233 63.0344
RightShoulder  4.84824 9.33327 23.4555
RightArm  3.03172 -66.252 11.9199
RightForeArm  -9.82228 9.90642 -7.38371
RightHand  -7.84572 6.71787 -66.3089
LeftUpLeg  -84.297 4.14649 -0.555438
LeftLeg  91.4187 -14.5779 13.1465
LeftFoot  31.9977 -1.03737 2.72235
LeftToes  5.91571e-011 -3.44359e-011 -3.93244e-011
182
root  -1.30352 5.76746 15.4204 -50.4238 -1.2753 3.7185
RightUpLeg  -86.805 -9.57049 -0.967003
RightLeg  93.4644 16.9251 -9.6831
RightFoot  30.1043 3.26063 -8.5107
RightToes  5.82077e-011 -3.18055e-015 -2.98177e-016
Spine  33.2013 1.74514 2.02003
Spine1  21.8657 -0.465411 2.19575
HEad  -14.2723 5.78832 1.30868
LeftShoulder1  -3.88251e-019 9.70628e-020 -3.87848e-018
LeftArm  -20.6164 63.3752 -56.1762
LeftForeArm  1.32225 -0.258346 -0.832371
LeftHand  -8.71881 -9.80158 61.9969
RightShoulder  4.89218 9.39468 23.5958
RightArm  3.53516 -66.034 11.5054
RightForeArm  -9.57604 9.93527 -7.23306
RightHand  -7.79865 6.61996 -66.4162
LeftUpLeg  -84.4284 4.34152 -0.558526
LeftLeg  91.4813 -14.5799 13.0438
LeftFoot  32.1394 -1.04559 2.73369
LeftToes  5.91571e-011 -3.44359e-011 -3.93244e-011
183
root  -1.29223 5.78143 15.4151 -50.2598 -1.77308 3.59699
RightUpLeg  -86.8359 -9.48844 -0.424549
RightLeg  93.3643 16.8884 -9.52301
RightFoot  30.1829 3.1725 -8.27403
RightToes  5.82077e-011 -3.18055e-015 -2.98177e-016
Spine  32.9863 1.79215 2.30889
Spine1  21.8483 -0.319032 2.12066
HEad  -14.704 5.50459 0.776578
LeftShoulder1  -3.88251e-019 9.70628e-020 -3.87848e-018
LeftArm  -19.5882 64.2819 -55.45
LeftForeArm  0.660961 -1.09682 -1.20375
LeftHand  -8.73828 -9.74146 62.3102
RightShoulder  4.91 9.39168 23.7046
RightArm  3.69103 -65.9461 11.2983
RightForeArm  -9.26762 10.1082 -7.29671
RightHand  -7.72056 6.52674 -66.2937
LeftUpLeg  -84.6152 4.72493 -0.155259
LeftLeg  91.5504 -14.5794 12.9084
LeftFoot  32.2938 -1.02287 2.67021
LeftToes  5.91571e-011 -3.44359e-011 -3.93244e-011
184
root  -1.27423 5.77412 15.4364 -50.2479 -1.75965 3.6977
RightUpLeg  -86.9965 -9.71043 -0.268554
RightLeg  93.5017 16.87 -9.23631
RightFoot  30.1864 3.37564 -8.78085
RightToes  5.82077e-011 -3.18055e-015 -2.98177e-016
Spine  32.6031 2.03587 2.12769
Spine1  22.2139 -0.209515 2.32697
HEad  -15.0082 4.89017 0.483055
LeftShoulder1  -3.88251e-019 9.70628e-020 -3.87848e-018
LeftArm  -19.7062 64.7919 -55.5586
LeftForeArm  0.313358 -2.24595 -1.06909
LeftHand  -8.92353 -9.91648 62.7791
RightShoulder  4.85181 9.29358 23.5511
RightArm  3.31102 -66.1862 11.4438
RightForeArm  -8.94796 10.2905 -7.59987
RightHand  -7.73101 6.62749 -65.9258
LeftUpLeg  -84.6532 4.86211 -0.317895
LeftLeg  91.5919 -14.599 13.0044
LeftFoot  32.3685 -0.997437 2.60518
LeftToes  5.91571e-011 -3.44359e-011 -3.93244e-011
